<?xml version="1.0" encoding="UTF-8" standalone="no"?>
<!-- Created with Inkscape (http://www.inkscape.org/) -->

<svg
   xmlns:dc="http://purl.org/dc/elements/1.1/"
   xmlns:cc="http://creativecommons.org/ns#"
   xmlns:rdf="http://www.w3.org/1999/02/22-rdf-syntax-ns#"
   xmlns:svg="http://www.w3.org/2000/svg"
   xmlns="http://www.w3.org/2000/svg"
   xmlns:sodipodi="http://sodipodi.sourceforge.net/DTD/sodipodi-0.dtd"
   xmlns:inkscape="http://www.inkscape.org/namespaces/inkscape"
   width="24"
   height="33"
   id="svg2"
   version="1.1"
   inkscape:version="0.48.4 r9939"
   sodipodi:docname="medic_role_icon.svg"
   inkscape:export-filename="C:\cygwin\home\jason\src\pandemic-duplicate\webapp\images\archivist_role_icon.png"
   inkscape:export-xdpi="90"
   inkscape:export-ydpi="90">
  <defs
     id="defs4" />
  <sodipodi:namedview
     id="base"
     pagecolor="#ffffff"
     bordercolor="#666666"
     borderopacity="1.0"
     inkscape:pageopacity="0.0"
     inkscape:pageshadow="2"
     inkscape:zoom="11.2"
     inkscape:cx="12.255296"
     inkscape:cy="14.827416"
     inkscape:document-units="px"
     inkscape:current-layer="layer2"
     showgrid="false"
     inkscape:window-width="1098"
     inkscape:window-height="682"
     inkscape:window-x="664"
     inkscape:window-y="268"
     inkscape:window-maximized="0" />
  <metadata
     id="metadata7">
    <rdf:RDF>
      <cc:Work
         rdf:about="">
        <dc:format>image/svg+xml</dc:format>
        <dc:type
           rdf:resource="http://purl.org/dc/dcmitype/StillImage" />
        <dc:title></dc:title>
      </cc:Work>
    </rdf:RDF>
  </metadata>
  <g
     inkscape:label="Layer 1"
     inkscape:groupmode="layer"
     id="layer1"
     style="display:inline"
     transform="translate(0,-1019.3622)" />
  <g
     inkscape:groupmode="layer"
     id="layer2"
     inkscape:label="Layer"
     transform="translate(0,-1019.3622)">
    <path
       id="path2985-4-0"
       style="fill:#83c6e2;fill-opacity:1;stroke:#000000;stroke-width:0.30906704000000002;stroke-miterlimit:4;stroke-opacity:1;stroke-dasharray:none;stroke-dashoffset:0"
       d="m 3.1693685,1051.2242 c -0.097847,-0.029 -0.1962564,-0.1032 -0.1981176,-0.2833 0.071338,-4.589 1.8678443,-12.4849 4.5589644,-15.0826 0.5467928,-0.54 0.8803006,-1.2759 0.8803006,-2.0898 0,-0.7741 -0.3951657,-1.571 -0.9109283,-2.0996 -1.3303561,-1.2631 -2.1434065,-3.0289 -2.1434065,-4.9848 0,-3.814 3.0918585,-6.9058 6.9015279,-6.8994 3.809669,0.01 6.901529,3.0982 6.901529,6.9123 0,1.9558 -0.813051,3.7217 -2.143405,4.9847 -0.515764,0.5286 -0.910928,1.3256 -0.910928,2.0996 0,0.8139 0.333505,1.5499 0.880298,2.0898 2.691121,2.5978 4.487627,10.4936 4.558963,15.0826 -0.0019,0.1802 -0.100265,0.2541 -0.198115,0.2833 -2.724786,0.5042 -6.00674,0.7956 -9.088342,0.7891 -3.0816014,-0.01 -6.3635537,-0.2978 -9.0883405,-0.8019 z"
       inkscape:connector-curvature="0"
       sodipodi:nodetypes="cccscscscsccccc" />
    <path
       sodipodi:type="arc"
       style="fill:#82d5f6;fill-opacity:1;stroke:none"
       id="path3837"
       sodipodi:cx="368.20059"
       sodipodi:cy="297.27316"
       sodipodi:rx="190.41376"
       sodipodi:ry="190.41376"
       d="m 558.61435,297.27316 a 190.41376,190.41376 0 1 1 -380.82752,0 190.41376,190.41376 0 1 1 380.82752,0 z"
       transform="matrix(0.03065006,0,0,0.03065006,0.25230911,1017.2194)" />
    <path
       id="path2985-4-0-9"
       style="fill:#82d5f6;fill-opacity:1;stroke:none"
       d="m 14.875606,1037.1886 c 2.180398,2.1128 3.642748,8.5848 3.700657,12.3096 -0.0016,0.1462 -0.0814,0.2062 -0.160819,0.2301 -2.211796,0.4092 -4.87586,0.998 -7.377292,0.9928 -2.501435,-0.01 -5.1654999,-0.5941 -7.377295,-1.0033 -0.079426,-0.023 -0.1593079,-0.085 -0.1608182,-0.2301 0.057907,-3.7248 1.5276117,-10.1892 3.7006555,-12.3096 0.5728254,-0.5589 2.4515149,-1.4492 4.0872197,-1.4569 1.635705,-0.01 3.139749,1.0335 3.587692,1.4674 z"
       inkscape:connector-curvature="0"
       sodipodi:nodetypes="scccccszs" />
    <path
       style="fill:none;stroke:#ffffff;stroke-width:0.61813408;stroke-linecap:round;stroke-miterlimit:4;stroke-opacity:1;stroke-dasharray:none"
       d="m 7.4558895,1026.2312 c 0,-1.6401 0.9043333,-3.069 2.241552,-3.8151"
       id="path3837-4"
       inkscape:connector-curvature="0"
       sodipodi:nodetypes="cc" />
    <path
       id="path2985-4-0-9-8"
       style="fill:none;stroke:#ffffff;stroke-width:0.61813408;stroke-linecap:round;stroke-miterlimit:4;stroke-opacity:1;stroke-dasharray:none"
       d="m 5.063332,1045.1734 c 0,0 0.3883477,-1.9115 0.4329058,-2.0698 0.4988694,-1.772 1.403922,-3.3077 2.5534031,-4.4292 0.2202362,-0.2149 1.1192772,-0.9395 1.1192772,-0.9395"
       inkscape:connector-curvature="0"
       sodipodi:nodetypes="cssc" />
  </g>
</svg>
