<?xml version="1.0" encoding="UTF-8" standalone="no"?>
<!-- Created with Inkscape (http://www.inkscape.org/) -->

<svg
   xmlns:dc="http://purl.org/dc/elements/1.1/"
   xmlns:cc="http://creativecommons.org/ns#"
   xmlns:rdf="http://www.w3.org/1999/02/22-rdf-syntax-ns#"
   xmlns:svg="http://www.w3.org/2000/svg"
   xmlns="http://www.w3.org/2000/svg"
   xmlns:xlink="http://www.w3.org/1999/xlink"
   xmlns:sodipodi="http://sodipodi.sourceforge.net/DTD/sodipodi-0.dtd"
   xmlns:inkscape="http://www.inkscape.org/namespaces/inkscape"
   width="16"
   height="16"
   id="svg3764"
   version="1.1"
   inkscape:version="0.48.4 r9939"
   sodipodi:docname="purple_icon.svg"
   inkscape:export-filename="C:\cygwin\home\jason\src\pandemic-duplicate\webapp\blue_icon.png"
   inkscape:export-xdpi="90"
   inkscape:export-ydpi="90">
  <defs
     id="defs3766">
    <linearGradient
       id="linearGradient4282">
      <stop
         style="stop-color:#6c006a;stop-opacity:1;"
         offset="0"
         id="stop4284" />
      <stop
         id="stop4290"
         offset="0.51324791"
         style="stop-color:#ff00f4;stop-opacity:1;" />
      <stop
         style="stop-color:#ffffff;stop-opacity:1;"
         offset="1"
         id="stop4286" />
    </linearGradient>
    <linearGradient
       inkscape:collect="always"
       xlink:href="#linearGradient4282"
       id="linearGradient4288"
       x1="15.304583"
       y1="15.469596"
       x2="3.5795822"
       y2="2.5111268"
       gradientUnits="userSpaceOnUse" />
  </defs>
  <sodipodi:namedview
     id="base"
     pagecolor="#ffffff"
     bordercolor="#666666"
     borderopacity="1.0"
     inkscape:pageopacity="0.0"
     inkscape:pageshadow="2"
     inkscape:zoom="19.737823"
     inkscape:cx="15.654153"
     inkscape:cy="8.5096797"
     inkscape:document-units="px"
     inkscape:current-layer="layer1"
     showgrid="false"
     inkscape:window-width="1422"
     inkscape:window-height="869"
     inkscape:window-x="251"
     inkscape:window-y="84"
     inkscape:window-maximized="0" />
  <metadata
     id="metadata3769">
    <rdf:RDF>
      <cc:Work
         rdf:about="">
        <dc:format>image/svg+xml</dc:format>
        <dc:type
           rdf:resource="http://purl.org/dc/dcmitype/StillImage" />
        <dc:title></dc:title>
      </cc:Work>
    </rdf:RDF>
  </metadata>
  <g
     inkscape:label="Layer 1"
     inkscape:groupmode="layer"
     id="layer1"
     transform="translate(0,-1036.3622)">
    <path
       sodipodi:type="arc"
       style="fill:url(#linearGradient4288);fill-opacity:1;stroke:#000000;stroke-width:0.2575886;stroke-miterlimit:4;stroke-opacity:1;stroke-dasharray:none"
       id="path3772"
       sodipodi:cx="9.3220339"
       sodipodi:cy="8.3050852"
       sodipodi:rx="6.0677967"
       sodipodi:ry="7.2203388"
       d="m 15.389831,8.3050852 c 0,3.9876828 -2.716646,7.2203388 -6.0677971,7.2203388 -3.3511516,0 -6.0677967,-3.232656 -6.0677967,-7.2203388 0,-3.987683 2.7166451,-7.2203388 6.0677967,-7.2203388 3.3511511,0 6.0677971,3.2326558 6.0677971,7.2203388 z"
       transform="matrix(1.2932711,0,0,1.0868334,-4.0559163,1035.3359)" />
    <path
       sodipodi:type="star"
       style="opacity:0.75;fill:none;stroke:#ffffff;stroke-width:1;stroke-miterlimit:4;stroke-opacity:1;stroke-dasharray:none"
       id="path3994"
       sodipodi:sides="6"
       sodipodi:cx="-4.7288952"
       sodipodi:cy="4.6793118"
       sodipodi:r1="0.01913536"
       sodipodi:r2="5.7060621"
       sodipodi:arg1="0.66596924"
       sodipodi:arg2="1.5590362"
       inkscape:flatsided="false"
       inkscape:rounded="0.2574084"
       inkscape:randomized="0"
       d="m -4.7138487,4.691134 c -1.2606317,0.7477289 1.4125243,5.148486 0.052056,5.693845 -1.3588128,0.544696 1.2064955,-4.9697244 -0.069818,-5.6867255 -1.2778681,-0.7178746 -3.7524576,3.7975249 -4.9049869,2.8920046 -1.1511268,-0.9044185 4.9071558,-1.4400067 4.8899404,-2.9038268 -0.017236,-1.4656036 -5.1649818,-1.3509611 -4.9570428,-2.801841 0.2076859,-1.44911429 3.7006602,3.5297183 4.9597579,2.7828992 1.2606318,-0.7477289 -1.4125242,-5.148486 -0.052056,-5.6938455 1.3588128,-0.5446959 -1.2064955,4.9697249 0.069818,5.686726 C -3.448312,5.3782446 -0.97372252,0.8628451 0.17880679,1.7683654 1.3299336,2.6727839 -4.728349,3.2083721 -4.7111336,4.6721922 -4.6938972,6.1377958 0.45384822,6.0231534 0.24590926,7.4740332 0.03822333,8.9231475 -3.454751,3.944315 -4.7138487,4.691134 z"
       transform="translate(12.728895,1039.6829)"
       inkscape:transform-center-x="0.16142815"
       inkscape:transform-center-y="-0.022258173" />
  </g>
</svg>
